<svg xmlns="http://www.w3.org/2000/svg" enable-background="new 0 0 64 64" viewBox="0 0 64 64"><path fill="#2b2e63" d="M32 13.9c.5 0 1-.4 1-1V3.8c0-.5-.4-1-1-1s-1 .4-1 1v9.1C31 13.4 31.5 13.9 32 13.9zM23.3 14.8c.2.4.5.6.9.6.1 0 .2 0 .4-.1.5-.2.7-.8.5-1.3l-1.7-4.2c-.2-.5-.8-.7-1.3-.5-.5.2-.7.8-.5 1.3L23.3 14.8zM17 19.5c.2.2.4.3.7.3s.5-.1.7-.3c.4-.4.4-1 0-1.4l-6.4-6.4c-.4-.4-1-.4-1.4 0-.4.4-.4 1 0 1.4L17 19.5zM8.7 24.6l4.2 1.7c.1.1.2.1.4.1.4 0 .7-.2.9-.6.2-.5 0-1.1-.5-1.3l-4.2-1.7c-.5-.2-1.1 0-1.3.5C8 23.8 8.2 24.4 8.7 24.6zM2.7 34.1h9.1c.5 0 1-.4 1-1s-.4-1-1-1H2.7c-.5 0-1 .4-1 1S2.1 34.1 2.7 34.1zM51.3 33.2c0 .5.4 1 1 1h9.1c.5 0 1-.4 1-1s-.4-1-1-1h-9.1C51.8 32.2 51.3 32.6 51.3 33.2zM49.8 25.8c.2.4.5.6.9.6.1 0 .2 0 .4-.1l4.2-1.7c.5-.2.7-.8.5-1.3-.2-.5-.8-.7-1.3-.5l-4.2 1.7C49.9 24.7 49.6 25.3 49.8 25.8zM46.3 19.8c.2 0 .5-.1.7-.3l6.4-6.4c.4-.4.4-1 0-1.4-.4-.4-1-.4-1.4 0l-6.4 6.4c-.4.4-.4 1 0 1.4C45.9 19.7 46.1 19.8 46.3 19.8zM39.4 15.3c.1.1.2.1.4.1.4 0 .7-.2.9-.6l1.7-4.2c.2-.5 0-1.1-.5-1.3-.5-.2-1.1 0-1.3.5l-1.7 4.2C38.7 14.6 38.9 15.1 39.4 15.3z"/><path fill="#2b2e63" d="M63,41.7H46.8c1.5-2.6,2.3-5.5,2.3-8.5c0-9.4-7.7-17-17-17c-9.4,0-17,7.7-17,17c0,3,0.8,5.9,2.3,8.5H1
		c-0.5,0-1,0.4-1,1c0,0.5,0.4,1,1,1h7.9c0.1,0,0.2,0,0.2,0c0.1,0,0.1,0,0.2,0h45.5c0.1,0,0.1,0,0.2,0c0.1,0,0.2,0,0.2,0H63
		c0.5,0,1-0.4,1-1C64,42.1,63.6,41.7,63,41.7z M19.5,41.7c-1.7-2.5-2.6-5.4-2.6-8.5c0-8.3,6.8-15.1,15.1-15.1s15.1,6.8,15.1,15.1
		c0,3.1-0.9,6-2.6,8.5H19.5z"/><path fill="#ffdc7c" d="M47.1,33.2c0,3.1-0.9,6-2.6,8.5H19.5c-1.7-2.5-2.6-5.4-2.6-8.5c0-8.3,6.8-15.1,15.1-15.1S47.1,24.8,47.1,33.2z
		"/><path fill="#2b2e63" d="M58.2 47.4H5.8c-.5 0-1 .4-1 1s.4 1 1 1h52.4c.5 0 1-.4 1-1S58.7 47.4 58.2 47.4zM52.4 53H11.6c-.5 0-1 .4-1 1 0 .5.4 1 1 1h40.7c.5 0 1-.4 1-1C53.3 53.5 52.9 53 52.4 53zM47.5 59.2H17.5c-.5 0-1 .4-1 1s.4 1 1 1h30.1c.5 0 1-.4 1-1S48.1 59.2 47.5 59.2z"/></svg>