<?xml version="1.0" standalone="no"?>
<svg viewBox="0 0 200 200" xmlns="http://www.w3.org/2000/svg">
  <path fill="#0D6DFD" d="M35,-68.6C41,-57.1,38.6,-39,45.7,-26.5C52.8,-14,69.3,-7,74,2.7C78.7,12.5,71.7,24.9,63.4,35.3C55.1,45.6,45.5,53.9,34.7,57.5C23.9,61.2,12,60.2,-1.9,63.4C-15.7,66.6,-31.4,74.1,-41.4,70C-51.5,66,-56,50.4,-61.9,36.9C-67.8,23.3,-75.2,11.6,-71.8,2C-68.4,-7.7,-54.2,-15.4,-43.8,-21.3C-33.5,-27.1,-26.9,-31.1,-20.2,-42.3C-13.5,-53.4,-6.8,-71.8,3.9,-78.5C14.5,-85.1,28.9,-80.2,35,-68.6Z" transform="translate(100 100)" />
</svg>
