<?xml version="1.0" standalone="no"?>
<svg viewBox="0 0 200 200" xmlns="http://www.w3.org/2000/svg">
  <path fill="#0D6DFD" d="M26,-46.9C37,-38.6,51.7,-38.5,62.4,-32C73.1,-25.5,80,-12.8,83.1,1.8C86.2,16.4,85.6,32.7,75.2,39.7C64.7,46.6,44.4,44.1,30.2,51.6C16,59.1,8,76.6,-3.6,82.9C-15.3,89.2,-30.5,84.2,-44.1,76.4C-57.7,68.5,-69.6,57.8,-70.4,44.6C-71.3,31.4,-61.1,15.7,-55.6,3.2C-50.1,-9.3,-49.1,-18.6,-47.2,-29.9C-45.3,-41.3,-42.3,-54.7,-34.3,-64.8C-26.2,-74.8,-13.1,-81.4,-2.8,-76.5C7.5,-71.6,14.9,-55.2,26,-46.9Z" transform="translate(100 100)" />
</svg>
